#!OML:ASF X:\für Bonn\!DataBase\2005_08_12_Daniel\c3d\Daniel.ASF
:FULLY-SPECIFIED
:DEGREES
93
root 4.81466 16.6209 0.660143 3.39289 -86.0721 4.34188
lowerback 42.286 0.0466584 -0.0514852
upperback 8.78142 -1.65515 -3.26237
thorax -10.4114 -1.19929 -2.68374
lowerneck 1.10609 -1.63662 -0.519552
upperneck -16.0678 -1.94787 4.66735
head -4.94337 -1.37235 1.6367
rclavicle 6.36111e-015 2.3059e-014
rhumerus -17.93 15.7276 -102.918
rradius 52.401
rwrist 16.7989
rhand -31.3426 -0.44517
rfingers 7.12502
rthumb -4.614 329.625
lclavicle 6.36111e-015 2.3059e-014
lhumerus -193.999 197.9 -75.113
lradius 52.3657
lwrist 32.1018
lhand -28.9224 20.6807
lfingers 7.12502
lthumb -2.27673 50.6483
rfemur -32.9962 -0.930055 11.8908
rtibia 46.7633
rfoot 336.31 -7.60489
rtoes -11.4222
lfemur -40.699 -16.0774 -8.88205
ltibia 49.6271
lfoot -20.9211 0.679119
ltoes -2.7628
94
root 4.80991 16.5343 0.648912 3.90163 -86.0731 3.61199
lowerback 42.4689 0.0127679 0.0853727
upperback 8.77211 -1.64563 -3.25335
thorax -10.4792 -1.19877 -2.74749
lowerneck 0.536345 -1.65697 -0.564474
upperneck -16.6812 -2.02102 4.55021
head -5.03539 -1.41918 1.61434
rclavicle 1.35174e-014 3.97569e-015
rhumerus -17.6043 15.2649 -102.917
rradius 51.9827
rwrist 16.3327
rhand -29.9663 -1.36443
rfingers 7.12502
rthumb -3.28489 328.681
lclavicle 1.35174e-014 3.97569e-015
lhumerus -193.841 197.96 -75.073
lradius 52.2456
lwrist 33.0425
lhand -28.7874 21.1808
lfingers 7.12502
lthumb -2.14636 51.1498
rfemur -33.7093 -1.63322 12.0406
rtibia 48.3995
rfoot 335.935 -6.8067
rtoes -11.527
lfemur -41.2868 -15.6893 -8.90573
ltibia 51.11
lfoot -21.416 0.0946514
ltoes -2.79887
95
root 4.80322 16.4417 0.639234 4.14608 -86.0995 3.08393
lowerback 42.6498 -0.0104337 0.206009
upperback 8.76462 -1.631 -3.24904
thorax -10.5435 -1.19618 -2.81012
lowerneck -0.0242873 -1.68232 -0.604173
upperneck -17.2285 -2.10567 4.41324
head -5.10925 -1.46934 1.58449
rclavicle 2.22639e-014 1.19271e-014
rhumerus -17.2539 14.8613 -102.914
rradius 51.6172
rwrist 15.8474
rhand -28.7457 -2.33824
rfingers 7.12502
rthumb -2.1061 327.692
lclavicle 2.22639e-014 1.19271e-014
lhumerus -193.678 197.932 -75.0119
lradius 52.0955
lwrist 33.88
lhand -28.6443 21.4685
lfingers 7.12502
lthumb -2.00814 51.4388
rfemur -34.3742 -2.33269 12.1655
rtibia 50.0816
rfoot 335.527 -5.99765
rtoes -11.7409
lfemur -41.8147 -15.2839 -8.97815
ltibia 52.6457
lfoot -21.9349 -0.466067
ltoes -2.83609
96
root 4.79483 16.3446 0.630307 4.39691 -86.1271 2.49358
lowerback 42.8279 -0.0416541 0.333212
upperback 8.75889 -1.62495 -3.25692
thorax -10.6058 -1.19773 -2.88556
lowerneck -0.516956 -1.68596 -0.624414
upperneck -17.7966 -2.15846 4.28947
head -5.20263 -1.50691 1.55536
rclavicle 1.82882e-014 3.57812e-014
rhumerus -16.8792 14.4695 -102.96
rradius 51.2953
rwrist 15.3774
rhand -27.708 -3.25708
rfingers 7.12502
rthumb -1.10389 326.766
lclavicle 1.82882e-014 3.57812e-014
lhumerus -193.564 197.9 -74.9654
lradius 52.026
lwrist 34.7015
lhand -28.5122 21.5465
lfingers 7.12502
lthumb -1.88063 51.518
rfemur -34.9827 -2.99705 12.2757
rtibia 51.7834
rfoot 335.067 -5.2013
rtoes -11.9024
lfemur -42.3043 -14.899 -9.04835
ltibia 54.22
lfoot -22.5135 -1.05545
ltoes -2.87732
97
root 4.78437 16.243 0.622607 4.38956 -86.1706 2.10785
lowerback 42.9661 -0.0547579 0.440287
upperback 8.78979 -1.60519 -3.25057
thorax -10.6122 -1.19411 -2.94147
lowerneck -0.880546 -1.69646 -0.644709
upperneck -18.5047 -2.22949 4.12146
head -5.36239 -1.55513 1.51726
rclavicle 7.95139e-015 2.38542e-014
rhumerus -16.4207 14.1394 -102.94
rradius 51.0751
rwrist 14.9314
rhand -26.8743 -4.05726
rfingers 7.12502
rthumb -0.298649 325.963
lclavicle 7.95139e-015 2.38542e-014
lhumerus -193.402 197.961 -74.9184
lradius 52.0933
lwrist 35.5967
lhand -28.4443 21.5704
lfingers 7.12502
lthumb -1.81498 51.5425
rfemur -35.5434 -3.63835 12.3425
rtibia 53.515
rfoot 334.607 -4.40902
rtoes -11.9105
lfemur -42.7329 -14.5335 -9.14573
ltibia 55.8257
lfoot -23.1366 -1.62322
ltoes -2.85095
98
root 4.77353 16.1381 0.616857 4.32918 -86.2822 1.6996
lowerback 43.158 -0.0427016 0.530028
upperback 8.78437 -1.56395 -3.25369
thorax -10.6744 -1.18059 -3.00764
lowerneck -1.06065 -1.69752 -0.676887
upperneck -19.2491 -2.28247 3.97983
head -5.56558 -1.59553 1.49176
rclavicle -1.59028e-015 -3.26007e-014
rhumerus -15.9557 13.8487 -102.938
rradius 50.9291
rwrist 14.5559
rhand -26.3066 -4.60598
rfingers 7.12502
rthumb 0.249658 325.414
lclavicle -1.59028e-015 -3.26007e-014
lhumerus -193.323 198.126 -74.8721
lradius 52.2917
lwrist 36.4312
lhand -28.4054 21.6671
lfingers 7.12502
lthumb -1.77741 51.6395
rfemur -36.0391 -4.22987 12.3938
rtibia 55.2522
rfoot 334.15 -3.61078
rtoes -12.1389
lfemur -43.0737 -14.1201 -9.26601
ltibia 57.4519
lfoot -23.7833 -2.18777
ltoes -2.83118
99
root 4.76261 16.028 0.613553 4.02124 -86.4655 1.48555
lowerback 43.3388 -0.0105385 0.626056
upperback 8.79596 -1.50386 -3.2955
thorax -10.7143 -1.15948 -3.12752
lowerneck -1.23753 -1.69785 -0.653821
upperneck -19.929 -2.33559 3.82847
head -5.7513 -1.63705 1.45303
rclavicle -2.06736e-014 -4.41302e-014
rhumerus -15.3609 13.6218 -102.925
rradius 50.8527
rwrist 14.2732
rhand -25.9674 -4.949
rfingers 7.12502
rthumb 0.577192 325.072
lclavicle -2.06736e-014 -4.41302e-014
lhumerus -193.168 198.387 -74.8767
lradius 52.5907
lwrist 37.1596
lhand -28.3258 21.7522
lfingers 7.12502
lthumb -1.70059 51.7251
rfemur -36.4941 -4.74396 12.3913
rtibia 56.9992
rfoot 333.683 -2.79492
rtoes -12.3035
lfemur -43.3381 -13.6975 -9.40726
ltibia 59.0912
lfoot -24.4684 -2.74451
ltoes -2.81684
100
root 4.75043 15.9164 0.612163 3.44865 -86.691 1.47108
lowerback 43.5007 0.0487238 0.6898
upperback 8.82888 -1.42468 -3.32108
thorax -10.7212 -1.13048 -3.22171
lowerneck -1.45837 -1.70382 -0.64966
upperneck -20.4672 -2.40288 3.64787
head -5.88579 -1.67779 1.40567
rclavicle 5.56597e-015 2.26615e-014
rhumerus -14.7488 13.409 -102.869
rradius 50.9053
rwrist 14.1922
rhand -25.8394 -4.97885
rfingers 7.12502
rthumb 0.700877 325.043
lclavicle 5.56597e-015 2.26615e-014
lhumerus -192.819 198.689 -74.8696
lradius 52.8913
lwrist 37.7537
lhand -28.266 21.9593
lfingers 7.12502
lthumb -1.64283 51.9327
rfemur -36.8756 -5.20394 12.3478
rtibia 58.7304
rfoot 333.24 -1.98886
rtoes -12.4587
lfemur -43.5046 -13.2447 -9.58046
ltibia 60.7197
lfoot -25.1855 -3.2886
ltoes -2.85247
101
root 4.73261 15.8037 0.612648 2.85714 -86.9432 1.43615
lowerback 43.6025 0.0994059 0.763637
upperback 8.85943 -1.3524 -3.36762
thorax -10.7145 -1.10411 -3.34133
lowerneck -1.82283 -1.69539 -0.614412
upperneck -20.6819 -2.44761 3.44901
head -5.8952 -1.69898 1.33819
rclavicle 2.38542e-015 -4.77083e-015
rhumerus -14.1693 13.2543 -102.845
rradius 51.1034
rwrist 14.2861
rhand -25.9367 -4.75547
rfingers 7.12502
rthumb 0.606879 325.266
lclavicle 2.38542e-015 -4.77083e-015
lhumerus -192.421 199.073 -74.9393
lradius 53.3177
lwrist 38.2632
lhand -28.2245 22.2451
lfingers 7.12502
lthumb -1.6027 52.2188
rfemur -37.1739 -5.62805 12.2747
rtibia 60.4301
rfoot 332.809 -1.15877
rtoes -12.4973
lfemur -43.5911 -12.7846 -9.75927
ltibia 62.3333
lfoot -25.8829 -3.82275
ltoes -2.78052
102
root 4.70555 15.6946 0.613082 1.57973 -87.1934 2.04171
lowerback 43.6124 0.174972 0.801766
upperback 8.91083 -1.26186 -3.40205
thorax -10.6547 -1.06874 -3.43794
lowerneck -2.22862 -1.70067 -0.540719
upperneck -20.7079 -2.5153 3.18938
head -5.83917 -1.72457 1.2418
rclavicle -7.95139e-016 -2.0276e-014
rhumerus -13.5099 13.1986 -102.767
rradius 51.5088
rwrist 14.3971
rhand -26.0751 -4.41285
rfingers 7.12502
rthumb 0.473251 325.608
lclavicle -7.95139e-016 -2.0276e-014
lhumerus -191.979 199.503 -74.992
lradius 53.8655
lwrist 38.6784
lhand -28.2459 22.4902
lfingers 7.12502
lthumb -1.62343 52.4638
rfemur -37.3608 -6.04319 12.1461
rtibia 62.0921
rfoot 332.376 -0.296781
rtoes -12.5654
lfemur -43.5471 -12.3363 -9.97971
ltibia 63.8873
lfoot -26.5919 -4.35839
ltoes -2.69974
103
root 4.67198 15.5859 0.613321 0.183575 -87.4266 2.73677
lowerback 43.5427 0.233276 0.843947
upperback 8.9765 -1.18847 -3.43823
thorax -10.5568 -1.04045 -3.53121
lowerneck -2.52391 -1.69199 -0.473294
upperneck -20.7314 -2.55675 2.94719
head -5.80134 -1.73717 1.15225
rclavicle -1.98785e-014 -1.66979e-014
rhumerus -12.8182 13.2947 -102.693
rradius 52.1733
rwrist 14.5458
rhand -26.1968 -3.99815
rfingers 7.12502
rthumb 0.355649 326.022
lclavicle -1.98785e-014 -1.66979e-014
lhumerus -191.478 200.033 -75.1074
lradius 54.5672
lwrist 39.114
lhand -28.3228 22.7039
lfingers 7.12502
lthumb -1.69772 52.6768
rfemur -37.4566 -6.41492 11.9978
rtibia 63.7124
rfoot 331.938 0.478164
rtoes -12.6877
lfemur -43.4364 -11.9005 -10.1924
ltibia 65.4043
lfoot -27.2747 -4.89443
ltoes -2.61849
104
root 4.63246 15.4789 0.612227 -1.62812 -87.6159 3.79209
lowerback 43.445 0.278477 0.875869
upperback 9.00488 -1.12849 -3.46706
thorax -10.4938 -1.01642 -3.60548
lowerneck -2.61484 -1.67928 -0.415255
upperneck -20.7336 -2.58269 2.71144
head -5.79116 -1.73878 1.06788
rclavicle -1.98785e-015 -1.27222e-014
rhumerus -12.1878 13.5601 -102.604
rradius 53.1034
rwrist 14.6515
rhand -26.3593 -3.7459
rfingers 7.12502
rthumb 0.198676 326.274
lclavicle -1.98785e-015 -1.27222e-014
lhumerus -191.02 200.578 -75.2268
lradius 55.3758
lwrist 39.5052
lhand -28.4492 22.8011
lfingers 7.12502
lthumb -1.81972 52.7731
rfemur -37.4245 -6.8032 11.8085
rtibia 65.3061
rfoot 331.506 1.27719
rtoes -12.786
lfemur -43.2041 -11.5059 -10.4165
ltibia 66.8676
lfoot -27.963 -5.4378
ltoes -2.61779
105
root 4.59143 15.3712 0.611646 -3.99059 -87.7733 5.36746
lowerback 43.326 0.301024 0.903407
upperback 9.02208 -1.09493 -3.49406
thorax -10.4388 -1.00345 -3.6639
lowerneck -2.62006 -1.65212 -0.331563
upperneck -20.7096 -2.58849 2.44467
head -5.78814 -1.72844 0.969241
rclavicle 2.62396e-014 2.38542e-014
rhumerus -11.4407 13.9965 -102.483
rradius 54.1549
rwrist 14.7434
rhand -26.4718 -3.60552
rfingers 7.12502
rthumb 0.0900693 326.415
lclavicle 2.62396e-014 2.38542e-014
lhumerus -190.508 201.156 -75.3811
lradius 56.2799
lwrist 39.9461
lhand -28.7234 22.7857
lfingers 7.12502
lthumb -2.08458 52.7552
rfemur -37.356 -7.18688 11.5733
rtibia 66.9029
rfoot 331.092 2.05404
rtoes -12.8526
lfemur -42.9393 -11.1452 -10.6488
ltibia 68.3098
lfoot -28.644 -5.96478
ltoes -2.54807
106
root 4.55155 15.2621 0.610662 -6.072 -87.9236 6.64912
lowerback 43.1814 0.329842 0.94085
upperback 9.02756 -1.0434 -3.49837
thorax -10.3876 -0.981954 -3.71092
lowerneck -2.53044 -1.63694 -0.283535
upperneck -20.6732 -2.60434 2.19604
head -5.7961 -1.71992 0.883721
rclavicle 8.74653e-015 3.81667e-014
rhumerus -10.4802 14.6861 -102.26
rradius 55.1702
rwrist 14.7235
rhand -26.6924 -3.52371
rfingers 7.12502
rthumb -0.123028 326.497
lclavicle 8.74653e-015 3.81667e-014
lhumerus -189.915 201.852 -75.5686
lradius 57.2653
lwrist 40.5151
lhand -29.1122 22.623
lfingers 7.12502
lthumb -2.46003 52.5885
rfemur -37.283 -7.56424 11.3327
rtibia 68.5163
rfoot 330.735 2.84183
rtoes -12.8281
lfemur -42.6634 -10.7684 -10.8374
ltibia 69.7356
lfoot -29.2841 -6.55328
ltoes -2.40201
